<?xml version="1.0" standalone="no"?>
<!DOCTYPE svg PUBLIC "-//W3C//DTD SVG 20010904//EN"
 "http://www.w3.org/TR/2001/REC-SVG-20010904/DTD/svg10.dtd">
<svg version="1.0" xmlns="http://www.w3.org/2000/svg"
 width="676.000000pt" height="1280.000000pt" viewBox="0 0 676.000000 1280.000000"
 preserveAspectRatio="xMidYMid meet">
<g transform="translate(0.000000,1280.000000) scale(0.100000,-0.100000)"
fill="#000000" stroke="none">
<path d="M2898 11978 l-3 -823 -45 -7 c-25 -4 -105 -14 -178 -23 -821 -97
-1523 -402 -1986 -861 -352 -350 -555 -761 -641 -1299 -22 -135 -31 -516 -16
-670 48 -496 246 -912 600 -1263 364 -360 899 -643 1496 -791 171 -42 214 -49
360 -55 141 -7 356 -24 393 -32 l22 -4 0 -1510 0 -1510 -39 0 c-22 0 -91 7
-153 15 -62 8 -193 19 -291 25 -399 24 -718 85 -1081 205 -412 136 -844 358
-1134 581 -45 35 -89 64 -96 64 -98 0 -114 -158 -92 -920 l9 -315 51 -42 c241
-196 693 -373 1277 -502 423 -93 857 -155 1454 -208 l90 -8 5 -985 5 -985 105
-7 c130 -9 526 -39 598 -45 l52 -5 0 1015 0 1015 28 6 c15 2 59 8 97 11 129
11 448 65 605 101 914 212 1607 634 1991 1213 184 277 304 600 344 927 8 71
20 157 25 190 13 79 13 209 0 304 -5 41 -17 129 -26 195 -62 469 -282 899
-638 1249 -491 482 -1274 843 -2251 1039 l-170 34 0 1409 0 1409 80 -3 c165
-5 473 -48 699 -97 502 -110 1081 -328 1510 -568 66 -37 120 -66 121 -64 2 1
8 166 14 367 7 201 16 478 21 615 6 138 10 287 10 331 l0 81 -124 37 c-621
182 -1402 310 -2110 346 -115 6 -213 13 -217 16 -5 3 -9 369 -9 815 l0 809
-380 0 -380 0 -2 -822z m2 -3227 c0 -1013 -3 -1320 -12 -1323 -6 -2 -55 6
-107 19 -678 163 -1142 467 -1327 869 -86 185 -116 440 -76 634 98 477 516
859 1134 1039 131 38 312 79 356 80 l32 1 0 -1319z m905 -2757 c616 -158 1080
-414 1317 -728 75 -99 148 -251 180 -371 33 -127 33 -380 0 -537 -145 -694
-612 -1092 -1427 -1218 -71 -11 -149 -20 -172 -20 l-43 0 0 1450 0 1450 23 0
c13 0 68 -11 122 -26z"/>
</g>
</svg>
